<svg id="visual" viewBox="0 0 900 600" width="900" height="600" xmlns="http://www.w3.org/2000/svg" xmlns:xlink="http://www.w3.org/1999/xlink" version="1.1"><path d="M0 421L21.5 411.3C43 401.7 86 382.3 128.8 374.2C171.7 366 214.3 369 257.2 378.8C300 388.7 343 405.3 385.8 408.5C428.7 411.7 471.3 401.3 514.2 397.8C557 394.3 600 397.7 642.8 400.7C685.7 403.7 728.3 406.3 771.2 399.7C814 393 857 377 878.5 369L900 361L900 601L878.5 601C857 601 814 601 771.2 601C728.3 601 685.7 601 642.8 601C600 601 557 601 514.2 601C471.3 601 428.7 601 385.8 601C343 601 300 601 257.2 601C214.3 601 171.7 601 128.8 601C86 601 43 601 21.5 601L0 601Z" fill="#fa7268"></path><path d="M0 397L21.5 403.8C43 410.7 86 424.3 128.8 437.7C171.7 451 214.3 464 257.2 456.7C300 449.3 343 421.7 385.8 411.2C428.7 400.7 471.3 407.3 514.2 420.2C557 433 600 452 642.8 449.3C685.7 446.7 728.3 422.3 771.2 414.2C814 406 857 414 878.5 418L900 422L900 601L878.5 601C857 601 814 601 771.2 601C728.3 601 685.7 601 642.8 601C600 601 557 601 514.2 601C471.3 601 428.7 601 385.8 601C343 601 300 601 257.2 601C214.3 601 171.7 601 128.8 601C86 601 43 601 21.5 601L0 601Z" fill="#ff4878"></path><path d="M0 451L21.5 451C43 451 86 451 128.8 459.5C171.7 468 214.3 485 257.2 492.2C300 499.3 343 496.7 385.8 492.2C428.7 487.7 471.3 481.3 514.2 480.3C557 479.3 600 483.7 642.8 489C685.7 494.3 728.3 500.7 771.2 497.8C814 495 857 483 878.5 477L900 471L900 601L878.5 601C857 601 814 601 771.2 601C728.3 601 685.7 601 642.8 601C600 601 557 601 514.2 601C471.3 601 428.7 601 385.8 601C343 601 300 601 257.2 601C214.3 601 171.7 601 128.8 601C86 601 43 601 21.5 601L0 601Z" fill="#f60097"></path><path d="M0 536L21.5 530C43 524 86 512 128.8 510.5C171.7 509 214.3 518 257.2 517.8C300 517.7 343 508.3 385.8 505.7C428.7 503 471.3 507 514.2 511.8C557 516.7 600 522.3 642.8 526.5C685.7 530.7 728.3 533.3 771.2 531.7C814 530 857 524 878.5 521L900 518L900 601L878.5 601C857 601 814 601 771.2 601C728.3 601 685.7 601 642.8 601C600 601 557 601 514.2 601C471.3 601 428.7 601 385.8 601C343 601 300 601 257.2 601C214.3 601 171.7 601 128.8 601C86 601 43 601 21.5 601L0 601Z" fill="#d200c5"></path><path d="M0 547L21.5 547.5C43 548 86 549 128.8 551.2C171.7 553.3 214.3 556.7 257.2 558.3C300 560 343 560 385.8 554.7C428.7 549.3 471.3 538.7 514.2 532.7C557 526.7 600 525.3 642.8 527.7C685.7 530 728.3 536 771.2 537.8C814 539.7 857 537.3 878.5 536.2L900 535L900 601L878.5 601C857 601 814 601 771.2 601C728.3 601 685.7 601 642.8 601C600 601 557 601 514.2 601C471.3 601 428.7 601 385.8 601C343 601 300 601 257.2 601C214.3 601 171.7 601 128.8 601C86 601 43 601 21.5 601L0 601Z" fill="#6600ff"></path></svg>