<svg id="visual" viewBox="0 0 900 600" width="900" height="600" xmlns="http://www.w3.org/2000/svg" xmlns:xlink="http://www.w3.org/1999/xlink" version="1.1"><path d="M0 229L82 175L164 229L245 247L327 193L409 121L491 211L573 79L655 181L736 85L818 193L900 199L900 0L818 0L736 0L655 0L573 0L491 0L409 0L327 0L245 0L164 0L82 0L0 0Z" fill="#ff6f61"></path><path d="M0 403L82 295L164 385L245 331L327 265L409 223L491 265L573 181L655 289L736 205L818 307L900 355L900 197L818 191L736 83L655 179L573 77L491 209L409 119L327 191L245 245L164 227L82 173L0 227Z" fill="#e46049"></path><path d="M0 487L82 505L164 469L245 451L327 433L409 379L491 439L573 385L655 391L736 427L818 445L900 415L900 353L818 305L736 203L655 287L573 179L491 263L409 221L327 263L245 329L164 383L82 293L0 401Z" fill="#c95132"></path><path d="M0 553L82 571L164 529L245 565L327 535L409 475L491 493L573 499L655 487L736 517L818 499L900 529L900 413L818 443L736 425L655 389L573 383L491 437L409 377L327 431L245 449L164 467L82 503L0 485Z" fill="#ae431b"></path><path d="M0 601L82 601L164 601L245 601L327 601L409 601L491 601L573 601L655 601L736 601L818 601L900 601L900 527L818 497L736 515L655 485L573 497L491 491L409 473L327 533L245 563L164 527L82 569L0 551Z" fill="#943600"></path></svg>