<svg id="visual" viewBox="0 0 900 600" width="900" height="600" xmlns="http://www.w3.org/2000/svg" xmlns:xlink="http://www.w3.org/1999/xlink" version="1.1"><path d="M0 383L21.5 398.7C43 414.3 86 445.7 128.8 449C171.7 452.3 214.3 427.7 257.2 426.5C300 425.3 343 447.7 385.8 450.8C428.7 454 471.3 438 514.2 419.2C557 400.3 600 378.7 642.8 384.3C685.7 390 728.3 423 771.2 447.5C814 472 857 488 878.5 496L900 504L900 601L878.5 601C857 601 814 601 771.2 601C728.3 601 685.7 601 642.8 601C600 601 557 601 514.2 601C471.3 601 428.7 601 385.8 601C343 601 300 601 257.2 601C214.3 601 171.7 601 128.8 601C86 601 43 601 21.5 601L0 601Z" fill="#0066FF" stroke-linecap="round" stroke-linejoin="miter"></path></svg>